#!OML:ASF X:\für Bonn\!DataBase\2005_08_12_Daniel\c3d\Daniel.ASF
:FULLY-SPECIFIED
:DEGREES
34
root -1.27005 17.4453 1.2042 -337.545 -72.7915 306.408
lowerback 48.4505 -17.7446 0.861513
upperback 12.9505 -23.7885 -2.01317
thorax -5.37538 -12.4552 6.97507
lowerneck -4.30836 11.6425 -0.370633
upperneck 8.49622 15.921 -4.91013
head 3.95583 7.59182 -0.762753
rclavicle -5.84427e-014 -7.95139e-015
rhumerus -62.2982 16.547 -75.7585
rradius 49.3955
rwrist 15.2555
rhand -23.1445 37.4532
rfingers 7.12502
rthumb 3.30358 7.49908
lclavicle -5.84427e-014 -7.95139e-015
lhumerus 40.4621 -8.79904 76.0015
lradius 129.303
lwrist 22.0851
lhand -26.3253 -26.0344
lfingers 7.12502
lthumb 0.231539 3.94517
rfemur -66.7928 -13.1606 27.3168
rtibia 114.47
rfoot -1.48062 11.4487
rtoes -11.1411
lfemur 18.0509 -13.7537 -14.167
ltibia 26.6753
lfoot -18.0887 -3.80171
ltoes 3.97461
35
root -1.26601 17.4561 1.22296 -337.401 -72.8709 305.633
lowerback 49.4775 -17.8206 0.558799
upperback 13.0661 -24.0626 -2.04896
thorax -5.30229 -12.6364 7.22238
lowerneck -4.82066 11.6938 -0.193853
upperneck 8.09879 16.0133 -5.21855
head 3.96328 7.63906 -0.858652
rclavicle 6.36111e-014 -7.63333e-014
rhumerus -62.5829 15.7219 -75.135
rradius 48.5617
rwrist 15.2271
rhand -23.447 37.5526
rfingers 7.12502
rthumb 3.01139 7.59416
lclavicle 6.36111e-014 -7.63333e-014
lhumerus 40.4016 -9.59552 75.9235
lradius 129.742
lwrist 21.6075
lhand -26.1575 -26.4105
lfingers 7.12502
lthumb 0.393663 3.56885
rfemur -69.2055 -13.2878 27.9683
rtibia 115.848
rfoot -1.25494 11.694
rtoes -11.1276
lfemur 19.2332 -13.7372 -14.2669
ltibia 25.8248
lfoot -17.7611 -3.54228
ltoes 4.00485
36
root -1.26077 17.4739 1.23991 -337.09 -72.8977 304.936
lowerback 50.2622 -17.9289 0.364589
upperback 13.1209 -24.3133 -2.06175
thorax -5.27419 -12.7902 7.42982
lowerneck -5.2129 11.7281 0.0928513
upperneck 7.71666 16.0718 -5.59192
head 3.97061 7.66982 -1.0009
rclavicle -7.71285e-014 -6.36111e-014
rhumerus -62.8791 14.9298 -74.6059
rradius 47.6956
rwrist 15.1161
rhand -23.67 37.5943
rfingers 7.12502
rthumb 2.7961 7.63286
lclavicle -7.71285e-014 -6.36111e-014
lhumerus 40.0728 -10.3773 75.908
lradius 130.177
lwrist 21.0959
lhand -25.9546 -26.4781
lfingers 7.12502
lthumb 0.58964 3.50086
rfemur -71.7237 -13.4229 28.7256
rtibia 117.036
rfoot -0.987503 11.8801
rtoes -10.4948
lfemur 20.1037 -13.7 -14.251
ltibia 24.9874
lfoot -17.3448 -3.34102
ltoes 4.19256
37
root -1.25613 17.4863 1.25687 -336.719 -72.9205 304.213
lowerback 50.9747 -18.0255 0.226668
upperback 13.168 -24.5228 -2.0672
thorax -5.25307 -12.9209 7.60101
lowerneck -5.57855 11.7298 0.318693
upperneck 7.35954 16.0803 -5.88276
head 3.96608 7.67636 -1.11257
rclavicle -5.56597e-014 8.11041e-014
rhumerus -63.1687 14.127 -74.1291
rradius 46.8763
rwrist 14.9083
rhand -23.7434 37.5683
rfingers 7.12502
rthumb 2.72513 7.60595
lclavicle -5.56597e-014 8.11041e-014
lhumerus 39.6405 -11.0502 75.9197
lradius 130.513
lwrist 20.6954
lhand -25.7091 -26.2687
lfingers 7.12502
lthumb 0.82675 3.7094
rfemur -74.1369 -13.5305 29.525
rtibia 118.116
rfoot -0.841773 12.0612
rtoes -9.75651
lfemur 20.9164 -13.6387 -14.1949
ltibia 24.1802
lfoot -16.9236 -3.19188
ltoes 4.46045
38
root -1.25177 17.4965 1.2737 -336.364 -72.969 303.526
lowerback 51.6414 -18.0909 0.085594
upperback 13.1927 -24.6948 -2.07125
thorax -5.24985 -13.029 7.75908
lowerneck -5.80732 11.7109 0.576863
upperneck 7.00513 16.0522 -6.19214
head 3.94053 7.66629 -1.24669
rclavicle -1.22451e-013 2.8625e-014
rhumerus -63.4601 13.2195 -73.5867
rradius 46.1445
rwrist 14.7037
rhand -23.5325 37.5297
rfingers 7.12502
rthumb 2.92889 7.57002
lclavicle -1.22451e-013 2.8625e-014
lhumerus 38.9847 -11.5859 76.1015
lradius 130.691
lwrist 20.3882
lhand -25.3946 -26.0374
lfingers 7.12502
lthumb 1.13041 3.93937
rfemur -76.424 -13.6018 30.322
rtibia 119.091
rfoot -0.905636 12.2219
rtoes -9.49523
lfemur 21.6749 -13.5205 -14.1403
ltibia 23.4345
lfoot -16.5134 -3.07679
ltoes 4.63987
39
root -1.24652 17.5079 1.28988 -336.018 -72.9934 302.874
lowerback 52.2468 -18.146 -0.0180996
upperback 13.2024 -24.8327 -2.05418
thorax -5.25511 -13.1182 7.90691
lowerneck -5.92998 11.6665 0.816712
upperneck 6.64235 15.9843 -6.49272
head 3.8876 7.63812 -1.38552
rclavicle 4.37326e-014 -3.65764e-014
rhumerus -63.7751 12.2941 -73.0363
rradius 45.5387
rwrist 14.5099
rhand -23.1647 37.4406
rfingers 7.12502
rthumb 3.28404 7.48616
lclavicle 4.37326e-014 -3.65764e-014
lhumerus 38.17 -11.9912 76.5834
lradius 130.636
lwrist 20.1158
lhand -24.8611 -25.922
lfingers 7.12502
lthumb 1.64569 4.05136
rfemur -78.5549 -13.6649 31.1179
rtibia 119.95
rfoot -1.10799 12.3104
rtoes -9.57124
lfemur 22.3595 -13.4385 -14.071
ltibia 22.7717
lfoot -16.1291 -3.02221
ltoes 4.97772
40
root -1.24175 17.518 1.3062 -335.591 -73.0356 302.184
lowerback 52.7641 -18.184 -0.119605
upperback 13.1886 -24.9462 -2.0159
thorax -5.26888 -13.1933 8.06097
lowerneck -5.89661 11.6037 0.9323
upperneck 6.24987 15.8901 -6.76038
head 3.77774 7.59865 -1.50781
rclavicle 5.48646e-014 1.65389e-013
rhumerus -64.0299 11.3867 -72.4201
rradius 44.9976
rwrist 14.3689
rhand -22.6541 37.3498
rfingers 7.12502
rthumb 3.77716 7.40349
lclavicle 5.48646e-014 1.65389e-013
lhumerus 37.134 -12.2113 77.3096
lradius 130.521
lwrist 19.9393
lhand -24.1547 -25.8651
lfingers 7.12502
lthumb 2.32799 4.10197
rfemur -80.49 -13.6643 31.922
rtibia 120.694
rfoot -1.42924 12.3085
rtoes -10.3543
lfemur 22.9337 -13.2876 -13.9567
ltibia 22.2046
lfoot -15.7797 -3.01069
ltoes 5.26049
41
root -1.23745 17.5228 1.32277 -335.174 -73.108 301.518
lowerback 53.219 -18.2026 -0.198084
upperback 13.1616 -25.0233 -1.98591
thorax -5.30217 -13.2448 8.18366
lowerneck -5.79668 11.517 0.937905
upperneck 5.9084 15.7646 -6.93408
head 3.65163 7.54428 -1.58801
rclavicle -6.20208e-014 -1.24042e-013
rhumerus -64.2192 10.442 -71.7892
rradius 44.4273
rwrist 14.3205
rhand -22.1953 37.4692
rfingers 7.12502
rthumb 4.22017 7.53128
lclavicle -6.20208e-014 -1.24042e-013
lhumerus 36.0182 -12.3613 78.2195
lradius 130.412
lwrist 19.8237
lhand -23.4246 -25.899
lfingers 7.12502
lthumb 3.03305 4.05915
rfemur -82.1422 -13.6087 32.7128
rtibia 121.347
rfoot -2.00876 12.3135
rtoes -12.2781
lfemur 23.4467 -13.0904 -13.8498
ltibia 21.7395
lfoot -15.4578 -3.03776
ltoes 5.49134
